# xmcd CD database file generated by OrangeCD 6.2
#
# Track frame offsets:
#	182
#	19440
#	30602
#	47412
#	70040
#	82705
#	95530
#	110472
#	127652
#	143462
#	159505
#	179212
#	188865
#	209342
#
# Disc length: 3142 seconds
#
# Revision: 3
# Processed by: cddbd v1.5.2PL0 Copyright (c) Steve Scherf et al.
# Submitted via: OrangeCD 6.2
#
DISCID=b20c440e
DTITLE=Screamin' Jay Hawkins - Blues Shouter
DYEAR=1996
DGENRE=Blues
TTITLE0=Portrait Of A Man
TTITLE1=Itty Bitty Pretty One
TTITLE2=Don't Deceive Me
TTITLE3=What's Gonna Happen On The 8th Day?
TTITLE4=Ashes
TTITLE5=We Love
TTITLE6=It's Only Make Believe
TTITLE7=Please Don't Leave Me
TTITLE8=I Put A Spell On You
TTITLE9=I Don't Know
TTITLE10=Guess Who
TTITLE11=What Good Is It Pt. 1
TTITLE12=What Good Is It Pt. 2
TTITLE13=Same Damn Thing
EXTD=
EXTT0=
EXTT1=
EXTT2=
EXTT3=
EXTT4=
EXTT5=
EXTT6=
EXTT7=
EXTT8=
EXTT9=
EXTT10=
EXTT11=
EXTT12=
EXTT13=
PLAYORDER=
